<svg xmlns="http://www.w3.org/2000/svg" xmlns:xlink="http://www.w3.org/1999/xlink" width="55" zoomAndPan="magnify" viewBox="0 0 41.25 30.000001" height="40" preserveAspectRatio="xMidYMid meet" version="1.0"><defs><clipPath id="b5553c019b"><path d="M 23.441406 0 L 40.222656 0 L 40.222656 17.554688 L 23.441406 17.554688 Z M 23.441406 0 " clip-rule="nonzero"/></clipPath><clipPath id="55bb3089c5"><path d="M 0.300781 0 L 18.066406 0 L 18.066406 17.554688 L 0.300781 17.554688 Z M 0.300781 0 " clip-rule="nonzero"/></clipPath><clipPath id="7686a16162"><path d="M 22 11 L 40.222656 11 L 40.222656 29.03125 L 22 29.03125 Z M 22 11 " clip-rule="nonzero"/></clipPath><clipPath id="8b786ea6e1"><path d="M 30.121094 39.769531 L 22.441406 35.980469 L 34.359375 11.828125 L 42.035156 15.613281 Z M 30.121094 39.769531 " clip-rule="nonzero"/></clipPath><clipPath id="5deee32b87"><path d="M 0.300781 13 L 19 13 L 19 29.03125 L 0.300781 29.03125 Z M 0.300781 13 " clip-rule="nonzero"/></clipPath><clipPath id="aeb032a347"><path d="M 6.152344 41.574219 L -1.527344 37.785156 L 10.390625 13.632812 L 18.066406 17.421875 Z M 6.152344 41.574219 " clip-rule="nonzero"/></clipPath></defs><g clip-path="url(#b5553c019b)"><path fill="#ffffff" d="M 40.71875 17.554688 L 23.441406 17.554688 L 23.441406 0.0117188 L 40.71875 0.0117188 Z M 40.71875 17.554688 " fill-opacity="1" fill-rule="nonzero"/></g><g clip-path="url(#55bb3089c5)"><path fill="#ffffff" d="M 18.066406 17.554688 L -1.558594 17.554688 L -1.558594 -0.0078125 L 18.066406 -0.0078125 Z M 18.066406 17.554688 " fill-opacity="1" fill-rule="nonzero"/></g><g clip-path="url(#7686a16162)"><g clip-path="url(#8b786ea6e1)"><path fill="#ffffff" d="M 30.121094 39.769531 L 22.441406 35.980469 L 34.351562 11.839844 L 42.03125 15.625 Z M 30.121094 39.769531 " fill-opacity="1" fill-rule="nonzero"/></g></g><g clip-path="url(#5deee32b87)"><g clip-path="url(#aeb032a347)"><path fill="#ffffff" d="M 6.152344 41.574219 L -1.527344 37.785156 L 10.382812 13.644531 L 18.0625 17.433594 Z M 6.152344 41.574219 " fill-opacity="1" fill-rule="nonzero"/></g></g></svg>