<svg xmlns="http://www.w3.org/2000/svg" xmlns:xlink="http://www.w3.org/1999/xlink" width="55" zoomAndPan="magnify" viewBox="0 0 41.25 30.000001" height="40" preserveAspectRatio="xMidYMid meet" version="1.0"><defs><clipPath id="00f155e0f8"><path d="M 0.300781 11.46875 L 17.578125 11.46875 L 17.578125 29.03125 L 0.300781 29.03125 Z M 0.300781 11.46875 " clip-rule="nonzero"/></clipPath><clipPath id="a0fe976ec5"><path d="M 22.949219 11.46875 L 40.222656 11.46875 L 40.222656 29.03125 L 22.949219 29.03125 Z M 22.949219 11.46875 " clip-rule="nonzero"/></clipPath><clipPath id="d88bcb742f"><path d="M 0.300781 0 L 19 0 L 19 18 L 0.300781 18 Z M 0.300781 0 " clip-rule="nonzero"/></clipPath><clipPath id="9692e4db3e"><path d="M 10.890625 -10.746094 L 18.570312 -6.960938 L 6.652344 17.195312 L -1.023438 13.40625 Z M 10.890625 -10.746094 " clip-rule="nonzero"/></clipPath><clipPath id="f2c586f621"><path d="M 22 0 L 40.222656 0 L 40.222656 16 L 22 16 Z M 22 0 " clip-rule="nonzero"/></clipPath><clipPath id="4bf1e19354"><path d="M 34.859375 -12.554688 L 42.539062 -8.765625 L 30.621094 15.390625 L 22.945312 11.601562 Z M 34.859375 -12.554688 " clip-rule="nonzero"/></clipPath></defs><g clip-path="url(#00f155e0f8)"><path fill="#ffffff" d="M 0.300781 11.46875 L 17.578125 11.46875 L 17.578125 30.632812 L 0.300781 30.632812 Z M 0.300781 11.46875 " fill-opacity="1" fill-rule="nonzero"/></g><g clip-path="url(#a0fe976ec5)"><path fill="#ffffff" d="M 22.949219 11.46875 L 40.222656 11.46875 L 40.222656 30.632812 L 22.949219 30.632812 Z M 22.949219 11.46875 " fill-opacity="1" fill-rule="nonzero"/></g><g clip-path="url(#d88bcb742f)"><g clip-path="url(#9692e4db3e)"><path fill="#ffffff" d="M 10.890625 -10.746094 L 18.570312 -6.960938 L 6.660156 17.183594 L -1.019531 13.394531 Z M 10.890625 -10.746094 " fill-opacity="1" fill-rule="nonzero"/></g></g><g clip-path="url(#f2c586f621)"><g clip-path="url(#4bf1e19354)"><path fill="#ffffff" d="M 34.859375 -12.554688 L 42.539062 -8.765625 L 30.628906 15.375 L 22.949219 11.589844 Z M 34.859375 -12.554688 " fill-opacity="1" fill-rule="nonzero"/></g></g></svg>